<svg width="48" height="48" viewBox="0 0 48 48" fill="none" xmlns="http://www.w3.org/2000/svg">
<rect width="48" height="48" rx="8" fill="#F1EDDF"/>
<line x1="24.75" y1="22" x2="37.3972" y2="22" stroke="#3A3335" stroke-width="1.5" stroke-linecap="round"/>
<circle cx="20.5" cy="22" r="1.5" fill="#3A3335"/>
<line x1="24.75" y1="26.5" x2="37.3972" y2="26.5" stroke="#3A3335" stroke-width="1.5" stroke-linecap="round"/>
<circle cx="20.5" cy="26.5" r="1.5" fill="#3A3335"/>
<line x1="24.75" y1="31" x2="37.3972" y2="31" stroke="#3A3335" stroke-width="1.5" stroke-linecap="round"/>
<circle cx="20.5" cy="31" r="1.5" fill="#3A3335"/>
<path fill-rule="evenodd" clip-rule="evenodd" d="M14.376 9.58397C14.5151 9.37533 14.7492 9.25 15 9.25H15.8028H29.1972H30C30.2508 9.25 30.4849 9.37533 30.624 9.58397L31.0681 10.25L31.0693 10.2519L31.0707 10.2539L32.4014 12.25H34C34.4142 12.25 34.75 12.5858 34.75 13V16C34.75 16.4142 34.4142 16.75 34 16.75H31.6849L31.5489 18.2458L31.5486 18.249L31.3895 20H29.8833L30.0548 18.1132C30.1213 17.3812 29.545 16.75 28.8099 16.75H16.1901C15.455 16.75 14.8787 17.3811 14.9452 18.1132L16.5816 36.1132L16.5816 36.1139C16.6405 36.7574 17.1802 37.25 17.8264 37.25H27.1736C27.8201 37.25 28.3599 36.757 28.4184 36.1132L28.7015 33H30.2076L29.9123 36.249L29.9121 36.2508L29.7469 38.0679C29.7118 38.4542 29.3879 38.75 29 38.75H27.1736H17.8264H16C15.6121 38.75 15.2882 38.4542 15.2531 38.0679L15.0877 36.249L13.4514 18.249L13.4513 18.2487L13.3151 16.75H11C10.5858 16.75 10.25 16.4142 10.25 16V13C10.25 12.5858 10.5858 12.25 11 12.25H12.5986L13.9303 10.2525L13.9307 10.2519L13.931 10.2514L14.376 9.58397ZM31 15.25H28.8099H16.1901H14H11.75V13.75H13H15.8028H29.1972H32H33.25V15.25H31ZM29.1972 12.25C29.7962 12.25 30.1535 11.5824 29.8213 11.084C29.6822 10.8753 29.448 10.75 29.1972 10.75H15.8028C15.552 10.75 15.3178 10.8753 15.1787 11.084C14.8465 11.5824 15.2038 12.25 15.8028 12.25H29.1972Z" fill="#3A3335"/>
</svg>
